<mxfile host="app.diagrams.net" agent="Mozilla/5.0 (Macintosh; Intel Mac OS X 10_15_7) AppleWebKit/537.36 (KHTML, like Gecko) Chrome/131.0.0.0 Safari/537.36" version="24.8.3">
  <diagram id="prtHgNgQTEPvFCAcTncT" name="Page-1">
    <mxGraphModel dx="867" dy="528" grid="1" gridSize="10" guides="1" tooltips="1" connect="1" arrows="1" fold="1" page="1" pageScale="1" pageWidth="827" pageHeight="1169" math="0" shadow="0">
      <root>
        <mxCell id="0" />
        <mxCell id="1" parent="0" />
        <mxCell id="eqgm055cjxXwS1enhhKB-5" style="edgeStyle=orthogonalEdgeStyle;rounded=0;orthogonalLoop=1;jettySize=auto;html=1;entryX=0;entryY=0.5;entryDx=0;entryDy=0;strokeColor=default;curved=1;" edge="1" parent="1" source="eqgm055cjxXwS1enhhKB-1" target="eqgm055cjxXwS1enhhKB-2">
          <mxGeometry relative="1" as="geometry" />
        </mxCell>
        <mxCell id="eqgm055cjxXwS1enhhKB-6" value="写" style="edgeLabel;html=1;align=center;verticalAlign=middle;resizable=0;points=[];" vertex="1" connectable="0" parent="eqgm055cjxXwS1enhhKB-5">
          <mxGeometry x="-0.0952" y="3" relative="1" as="geometry">
            <mxPoint as="offset" />
          </mxGeometry>
        </mxCell>
        <mxCell id="eqgm055cjxXwS1enhhKB-11" style="edgeStyle=orthogonalEdgeStyle;rounded=0;orthogonalLoop=1;jettySize=auto;html=1;entryX=0;entryY=0.5;entryDx=0;entryDy=0;" edge="1" parent="1" source="eqgm055cjxXwS1enhhKB-1" target="eqgm055cjxXwS1enhhKB-4">
          <mxGeometry relative="1" as="geometry" />
        </mxCell>
        <mxCell id="eqgm055cjxXwS1enhhKB-12" value="同步删除缓存" style="edgeLabel;html=1;align=center;verticalAlign=middle;resizable=0;points=[];" vertex="1" connectable="0" parent="eqgm055cjxXwS1enhhKB-11">
          <mxGeometry x="-0.0058" y="-1" relative="1" as="geometry">
            <mxPoint x="9" y="-1" as="offset" />
          </mxGeometry>
        </mxCell>
        <mxCell id="eqgm055cjxXwS1enhhKB-1" value="App" style="ellipse;shape=cloud;whiteSpace=wrap;html=1;" vertex="1" parent="1">
          <mxGeometry x="43" y="240" width="120" height="80" as="geometry" />
        </mxCell>
        <mxCell id="eqgm055cjxXwS1enhhKB-2" value="MySQL" style="rounded=1;whiteSpace=wrap;html=1;" vertex="1" parent="1">
          <mxGeometry x="365" y="150" width="120" height="60" as="geometry" />
        </mxCell>
        <mxCell id="eqgm055cjxXwS1enhhKB-19" style="edgeStyle=orthogonalEdgeStyle;rounded=0;orthogonalLoop=1;jettySize=auto;html=1;entryX=0;entryY=0.5;entryDx=0;entryDy=0;curved=1;" edge="1" parent="1" source="eqgm055cjxXwS1enhhKB-3" target="eqgm055cjxXwS1enhhKB-4">
          <mxGeometry relative="1" as="geometry">
            <mxPoint x="360" y="280" as="targetPoint" />
            <Array as="points">
              <mxPoint x="270" y="500" />
              <mxPoint x="270" y="280" />
            </Array>
          </mxGeometry>
        </mxCell>
        <mxCell id="eqgm055cjxXwS1enhhKB-20" value="异步删除缓存" style="edgeLabel;html=1;align=center;verticalAlign=middle;resizable=0;points=[];" vertex="1" connectable="0" parent="eqgm055cjxXwS1enhhKB-19">
          <mxGeometry x="-0.2864" relative="1" as="geometry">
            <mxPoint x="10" y="-71" as="offset" />
          </mxGeometry>
        </mxCell>
        <mxCell id="eqgm055cjxXwS1enhhKB-22" style="edgeStyle=orthogonalEdgeStyle;rounded=0;orthogonalLoop=1;jettySize=auto;html=1;entryX=0.5;entryY=1;entryDx=0;entryDy=0;" edge="1" parent="1" source="eqgm055cjxXwS1enhhKB-3" target="eqgm055cjxXwS1enhhKB-17">
          <mxGeometry relative="1" as="geometry" />
        </mxCell>
        <mxCell id="eqgm055cjxXwS1enhhKB-23" value="重试次数超限" style="edgeLabel;html=1;align=center;verticalAlign=middle;resizable=0;points=[];" vertex="1" connectable="0" parent="eqgm055cjxXwS1enhhKB-22">
          <mxGeometry x="-0.6769" y="1" relative="1" as="geometry">
            <mxPoint x="24" as="offset" />
          </mxGeometry>
        </mxCell>
        <mxCell id="eqgm055cjxXwS1enhhKB-3" value="落 MQ" style="rounded=1;whiteSpace=wrap;html=1;" vertex="1" parent="1">
          <mxGeometry x="365" y="470" width="120" height="60" as="geometry" />
        </mxCell>
        <mxCell id="eqgm055cjxXwS1enhhKB-21" style="edgeStyle=orthogonalEdgeStyle;rounded=0;orthogonalLoop=1;jettySize=auto;html=1;exitX=0.5;exitY=1;exitDx=0;exitDy=0;entryX=0.5;entryY=0;entryDx=0;entryDy=0;" edge="1" parent="1" source="eqgm055cjxXwS1enhhKB-4" target="eqgm055cjxXwS1enhhKB-10">
          <mxGeometry relative="1" as="geometry" />
        </mxCell>
        <mxCell id="eqgm055cjxXwS1enhhKB-4" value="Redis" style="rounded=1;whiteSpace=wrap;html=1;" vertex="1" parent="1">
          <mxGeometry x="365" y="250" width="120" height="60" as="geometry" />
        </mxCell>
        <mxCell id="eqgm055cjxXwS1enhhKB-14" style="edgeStyle=orthogonalEdgeStyle;rounded=0;orthogonalLoop=1;jettySize=auto;html=1;entryX=0.5;entryY=0;entryDx=0;entryDy=0;" edge="1" parent="1" source="eqgm055cjxXwS1enhhKB-10" target="eqgm055cjxXwS1enhhKB-3">
          <mxGeometry relative="1" as="geometry" />
        </mxCell>
        <mxCell id="eqgm055cjxXwS1enhhKB-15" value="否" style="edgeLabel;html=1;align=center;verticalAlign=middle;resizable=0;points=[];" vertex="1" connectable="0" parent="eqgm055cjxXwS1enhhKB-14">
          <mxGeometry x="-0.12" y="1" relative="1" as="geometry">
            <mxPoint x="-2" as="offset" />
          </mxGeometry>
        </mxCell>
        <mxCell id="eqgm055cjxXwS1enhhKB-16" style="edgeStyle=orthogonalEdgeStyle;rounded=0;orthogonalLoop=1;jettySize=auto;html=1;entryX=0.5;entryY=1;entryDx=0;entryDy=0;" edge="1" parent="1" source="eqgm055cjxXwS1enhhKB-10" target="eqgm055cjxXwS1enhhKB-17">
          <mxGeometry relative="1" as="geometry">
            <mxPoint x="709" y="280" as="targetPoint" />
          </mxGeometry>
        </mxCell>
        <mxCell id="eqgm055cjxXwS1enhhKB-18" value="是" style="edgeLabel;html=1;align=center;verticalAlign=middle;resizable=0;points=[];" vertex="1" connectable="0" parent="eqgm055cjxXwS1enhhKB-16">
          <mxGeometry x="-0.3942" y="-2" relative="1" as="geometry">
            <mxPoint x="1" y="-3" as="offset" />
          </mxGeometry>
        </mxCell>
        <mxCell id="eqgm055cjxXwS1enhhKB-10" value="删除成功" style="rhombus;whiteSpace=wrap;html=1;" vertex="1" parent="1">
          <mxGeometry x="365" y="360" width="120" height="40" as="geometry" />
        </mxCell>
        <mxCell id="eqgm055cjxXwS1enhhKB-17" value="结束" style="rounded=1;whiteSpace=wrap;html=1;" vertex="1" parent="1">
          <mxGeometry x="590" y="250" width="120" height="60" as="geometry" />
        </mxCell>
      </root>
    </mxGraphModel>
  </diagram>
</mxfile>
